<svg width="613" height="95" viewBox="0 0 613 95" fill="none" xmlns="http://www.w3.org/2000/svg">
<circle cx="36.5" cy="47.5" r="36" fill="#FFD05A" stroke="white"/>
<circle cx="103.5" cy="47.5" r="45.5" fill="#0166FF" stroke="white" stroke-width="4"/>
<path d="M212.489 25.6364V35.1818H182.386V25.6364H212.489ZM189.818 13.0909H202.159V62.25C202.159 63.9091 202.409 65.1818 202.909 66.0682C203.432 66.9318 204.114 67.5227 204.955 67.8409C205.795 68.1591 206.727 68.3182 207.75 68.3182C208.523 68.3182 209.227 68.2614 209.864 68.1477C210.523 68.0341 211.023 67.9318 211.364 67.8409L213.443 77.4886C212.784 77.7159 211.841 77.9659 210.614 78.2386C209.409 78.5114 207.932 78.6705 206.182 78.7159C203.091 78.8068 200.307 78.3409 197.83 77.3182C195.352 76.2727 193.386 74.6591 191.932 72.4773C190.5 70.2955 189.795 67.5682 189.818 64.2955V13.0909ZM245.088 79.0227C239.974 79.0227 235.543 77.8977 231.793 75.6477C228.043 73.3977 225.134 70.25 223.065 66.2045C221.02 62.1591 219.997 57.4318 219.997 52.0227C219.997 46.6136 221.02 41.875 223.065 37.8068C225.134 33.7386 228.043 30.5795 231.793 28.3295C235.543 26.0795 239.974 24.9545 245.088 24.9545C250.202 24.9545 254.634 26.0795 258.384 28.3295C262.134 30.5795 265.031 33.7386 267.077 37.8068C269.145 41.875 270.179 46.6136 270.179 52.0227C270.179 57.4318 269.145 62.1591 267.077 66.2045C265.031 70.25 262.134 73.3977 258.384 75.6477C254.634 77.8977 250.202 79.0227 245.088 79.0227ZM245.156 69.1364C247.929 69.1364 250.247 68.375 252.111 66.8523C253.974 65.3068 255.361 63.2386 256.27 60.6477C257.202 58.0568 257.668 55.1705 257.668 51.9886C257.668 48.7841 257.202 45.8864 256.27 43.2955C255.361 40.6818 253.974 38.6023 252.111 37.0568C250.247 35.5114 247.929 34.7386 245.156 34.7386C242.315 34.7386 239.952 35.5114 238.065 37.0568C236.202 38.6023 234.804 40.6818 233.872 43.2955C232.963 45.8864 232.509 48.7841 232.509 51.9886C232.509 55.1705 232.963 58.0568 233.872 60.6477C234.804 63.2386 236.202 65.3068 238.065 66.8523C239.952 68.375 242.315 69.1364 245.156 69.1364ZM281.199 78V8.18182H307.381C312.744 8.18182 317.244 9.18182 320.881 11.1818C324.54 13.1818 327.301 15.9318 329.165 19.4318C331.051 22.9091 331.994 26.8636 331.994 31.2955C331.994 35.7727 331.051 39.75 329.165 43.2273C327.278 46.7045 324.494 49.4432 320.812 51.4432C317.131 53.4205 312.597 54.4091 307.21 54.4091H289.858V44.0114H305.506C308.642 44.0114 311.21 43.4659 313.21 42.375C315.21 41.2841 316.688 39.7841 317.642 37.875C318.619 35.9659 319.108 33.7727 319.108 31.2955C319.108 28.8182 318.619 26.6364 317.642 24.75C316.688 22.8636 315.199 21.3977 313.176 20.3523C311.176 19.2841 308.597 18.75 305.438 18.75H293.847V78H281.199ZM364.866 79.0227C359.616 79.0227 355.082 77.9318 351.264 75.75C347.469 73.5455 344.548 70.4318 342.503 66.4091C340.457 62.3636 339.435 57.6023 339.435 52.125C339.435 46.7386 340.457 42.0114 342.503 37.9432C344.571 33.8523 347.457 30.6705 351.162 28.3977C354.866 26.1023 359.219 24.9545 364.219 24.9545C367.446 24.9545 370.491 25.4773 373.355 26.5227C376.241 27.5455 378.787 29.1364 380.991 31.2955C383.219 33.4545 384.969 36.2045 386.241 39.5455C387.514 42.8636 388.151 46.8182 388.151 51.4091V55.1932H345.23V46.875H376.321C376.298 44.5114 375.787 42.4091 374.787 40.5682C373.787 38.7045 372.389 37.2386 370.594 36.1705C368.821 35.1023 366.753 34.5682 364.389 34.5682C361.866 34.5682 359.651 35.1818 357.741 36.4091C355.832 37.6136 354.344 39.2045 353.276 41.1818C352.23 43.1364 351.696 45.2841 351.673 47.625V54.8864C351.673 57.9318 352.23 60.5455 353.344 62.7273C354.457 64.8864 356.014 66.5455 358.014 67.7045C360.014 68.8409 362.355 69.4091 365.037 69.4091C366.832 69.4091 368.457 69.1591 369.912 68.6591C371.366 68.1364 372.628 67.375 373.696 66.375C374.764 65.375 375.571 64.1364 376.116 62.6591L387.639 63.9545C386.912 67 385.526 69.6591 383.48 71.9318C381.457 74.1818 378.866 75.9318 375.707 77.1818C372.548 78.4091 368.935 79.0227 364.866 79.0227ZM410.932 47.3182V78H398.591V25.6364H410.386V34.5341H411C412.205 31.6023 414.125 29.2727 416.761 27.5455C419.42 25.8182 422.705 24.9545 426.614 24.9545C430.227 24.9545 433.375 25.7273 436.057 27.2727C438.761 28.8182 440.852 31.0568 442.33 33.9886C443.83 36.9205 444.568 40.4773 444.545 44.6591V78H432.205V46.5682C432.205 43.0682 431.295 40.3295 429.477 38.3523C427.682 36.375 425.193 35.3864 422.011 35.3864C419.852 35.3864 417.932 35.8636 416.25 36.8182C414.591 37.75 413.284 39.1023 412.33 40.875C411.398 42.6477 410.932 44.7955 410.932 47.3182ZM457.091 78V25.6364H469.432V78H457.091ZM463.295 18.2045C461.341 18.2045 459.659 17.5568 458.25 16.2614C456.841 14.9432 456.136 13.3636 456.136 11.5227C456.136 9.65909 456.841 8.07954 458.25 6.78409C459.659 5.46591 461.341 4.80682 463.295 4.80682C465.273 4.80682 466.955 5.46591 468.341 6.78409C469.75 8.07954 470.455 9.65909 470.455 11.5227C470.455 13.3636 469.75 14.9432 468.341 16.2614C466.955 17.5568 465.273 18.2045 463.295 18.2045ZM501.554 78.9205C497.44 78.9205 493.759 77.8636 490.509 75.75C487.259 73.6364 484.69 70.5682 482.804 66.5455C480.918 62.5227 479.974 57.6364 479.974 51.8864C479.974 46.0682 480.929 41.1591 482.838 37.1591C484.77 33.1364 487.372 30.1023 490.645 28.0568C493.918 25.9886 497.565 24.9545 501.588 24.9545C504.656 24.9545 507.179 25.4773 509.156 26.5227C511.134 27.5455 512.702 28.7841 513.861 30.2386C515.02 31.6705 515.918 33.0227 516.554 34.2955H517.065V8.18182H529.44V78H517.304V69.75H516.554C515.918 71.0227 514.997 72.375 513.793 73.8068C512.588 75.2159 510.997 76.4205 509.02 77.4205C507.043 78.4205 504.554 78.9205 501.554 78.9205ZM504.997 68.7955C507.611 68.7955 509.838 68.0909 511.679 66.6818C513.52 65.25 514.918 63.2614 515.872 60.7159C516.827 58.1705 517.304 55.2045 517.304 51.8182C517.304 48.4318 516.827 45.4886 515.872 42.9886C514.94 40.4886 513.554 38.5455 511.713 37.1591C509.895 35.7727 507.656 35.0795 504.997 35.0795C502.247 35.0795 499.952 35.7955 498.111 37.2273C496.27 38.6591 494.884 40.6364 493.952 43.1591C493.02 45.6818 492.554 48.5682 492.554 51.8182C492.554 55.0909 493.02 58.0114 493.952 60.5795C494.906 63.125 496.304 65.1364 498.145 66.6136C500.009 68.0682 502.293 68.7955 504.997 68.7955ZM557.659 79.0568C554.341 79.0568 551.352 78.4659 548.693 77.2841C546.057 76.0795 543.966 74.3068 542.42 71.9659C540.898 69.625 540.136 66.7386 540.136 63.3068C540.136 60.3523 540.682 57.9091 541.773 55.9773C542.864 54.0455 544.352 52.5 546.239 51.3409C548.125 50.1818 550.25 49.3068 552.614 48.7159C555 48.1023 557.466 47.6591 560.011 47.3864C563.08 47.0682 565.568 46.7841 567.477 46.5341C569.386 46.2614 570.773 45.8523 571.636 45.3068C572.523 44.7386 572.966 43.8636 572.966 42.6818V42.4773C572.966 39.9091 572.205 37.9205 570.682 36.5114C569.159 35.1023 566.966 34.3977 564.102 34.3977C561.08 34.3977 558.682 35.0568 556.909 36.375C555.159 37.6932 553.977 39.25 553.364 41.0455L541.841 39.4091C542.75 36.2273 544.25 33.5682 546.341 31.4318C548.432 29.2727 550.989 27.6591 554.011 26.5909C557.034 25.5 560.375 24.9545 564.034 24.9545C566.557 24.9545 569.068 25.25 571.568 25.8409C574.068 26.4318 576.352 27.4091 578.42 28.7727C580.489 30.1136 582.148 31.9432 583.398 34.2614C584.67 36.5795 585.307 39.4773 585.307 42.9545V78H573.443V70.8068H573.034C572.284 72.2614 571.227 73.625 569.864 74.8977C568.523 76.1477 566.83 77.1591 564.784 77.9318C562.761 78.6818 560.386 79.0568 557.659 79.0568ZM560.864 69.9886C563.341 69.9886 565.489 69.5 567.307 68.5227C569.125 67.5227 570.523 66.2045 571.5 64.5682C572.5 62.9318 573 61.1477 573 59.2159V53.0455C572.614 53.3636 571.955 53.6591 571.023 53.9318C570.114 54.2045 569.091 54.4432 567.955 54.6477C566.818 54.8523 565.693 55.0341 564.58 55.1932C563.466 55.3523 562.5 55.4886 561.682 55.6023C559.841 55.8523 558.193 56.2614 556.739 56.8295C555.284 57.3977 554.136 58.1932 553.295 59.2159C552.455 60.2159 552.034 61.5114 552.034 63.1023C552.034 65.375 552.864 67.0909 554.523 68.25C556.182 69.4091 558.295 69.9886 560.864 69.9886Z" fill="black"/>
<path d="M605.318 78.75C603.25 78.75 601.477 78.0227 600 76.5682C598.523 75.1136 597.795 73.3409 597.818 71.25C597.795 69.2045 598.523 67.4545 600 66C601.477 64.5455 603.25 63.8182 605.318 63.8182C607.318 63.8182 609.057 64.5455 610.534 66C612.034 67.4545 612.795 69.2045 612.818 71.25C612.795 72.6364 612.432 73.8977 611.727 75.0341C611.045 76.1705 610.136 77.0795 609 77.7614C607.886 78.4205 606.659 78.75 605.318 78.75Z" fill="#0166FF"/>
</svg>
